<svg xmlns="http://www.w3.org/2000/svg" viewBox="0 0 390 844" role="img" aria-label="CapitalNest dashboard screenshot">
  <rect width="390" height="844" fill="#F8FAF9"/>
  <rect width="390" height="160" fill="#0F5D31"/>
  <text x="24" y="48" fill="#A8D5B8" font-family="Poppins, Arial, sans-serif" font-size="13">Good morning</text>
  <text x="24" y="78" fill="#fff" font-family="Poppins, Arial, sans-serif" font-size="22" font-weight="700">CapitalNest</text>
  <circle cx="350" cy="58" r="18" fill="#24A148"/>
  <text x="344" y="64" fill="#fff" font-family="Poppins, Arial, sans-serif" font-size="14" font-weight="600">S</text>
  <rect x="20" y="110" width="350" height="100" rx="18" fill="#fff"/>
  <text x="40" y="145" fill="#6B7280" font-family="Poppins, Arial, sans-serif" font-size="13">Net Worth</text>
  <text x="40" y="180" fill="#0F5D31" font-family="Poppins, Arial, sans-serif" font-size="28" font-weight="700">Ļ18,45,000</text>
  <rect x="250" y="155" width="100" height="28" rx="14" fill="#E8F8EE"/>
  <text x="268" y="174" fill="#24A148" font-family="Poppins, Arial, sans-serif" font-size="12" font-weight="600">+12.5%</text>
  <text x="24" y="250" fill="#111" font-family="Poppins, Arial, sans-serif" font-size="16" font-weight="600">Portfolio Overview</text>
  <circle cx="120" cy="360" r="70" fill="none" stroke="#E8F0EB" stroke-width="22"/>
  <circle cx="120" cy="360" r="70" fill="none" stroke="#0F5D31" stroke-width="22" stroke-dasharray="220 440" stroke-linecap="round" transform="rotate(-90 120 360)"/>
  <circle cx="120" cy="360" r="70" fill="none" stroke="#24A148" stroke-width="22" stroke-dasharray="110 440" stroke-dashoffset="-220" transform="rotate(-90 120 360)"/>
  <circle cx="120" cy="360" r="70" fill="none" stroke="#7DDEA0" stroke-width="22" stroke-dasharray="70 440" stroke-dashoffset="-330" transform="rotate(-90 120 360)"/>
  <text x="95" y="355" fill="#111" font-family="Poppins, Arial, sans-serif" font-size="14" font-weight="700">Total</text>
  <text x="82" y="378" fill="#0F5D31" font-family="Poppins, Arial, sans-serif" font-size="13" font-weight="600">Ļ18.4L</text>
  <g font-family="Poppins, Arial, sans-serif" font-size="13">
    <circle cx="230" cy="310" r="6" fill="#0F5D31"/><text x="245" y="315" fill="#333">FD  45%</text>
    <circle cx="230" cy="340" r="6" fill="#24A148"/><text x="245" y="345" fill="#333">RD  25%</text>
    <circle cx="230" cy="370" r="6" fill="#7DDEA0"/><text x="245" y="375" fill="#333">Lending  18%</text>
    <circle cx="230" cy="400" r="6" fill="#C9E8D4"/><text x="245" y="405" fill="#333">Cash  12%</text>
  </g>
  <text x="24" y="470" fill="#111" font-family="Poppins, Arial, sans-serif" font-size="16" font-weight="600">Accounts</text>
  <rect x="20" y="490" width="350" height="64" rx="14" fill="#fff"/>
  <circle cx="52" cy="522" r="18" fill="#E8F8EE"/><text x="46" y="528" font-size="14"><ś</text>
  <text x="82" y="515" fill="#111" font-family="Poppins, Arial, sans-serif" font-size="14" font-weight="600">Fixed Deposits</text>
  <text x="82" y="535" fill="#6B7280" font-family="Poppins, Arial, sans-serif" font-size="12">8 accounts</text>
  <text x="290" y="525" fill="#0F5D31" font-family="Poppins, Arial, sans-serif" font-size="14" font-weight="700">Ļ8.2L</text>
  <rect x="20" y="566" width="350" height="64" rx="14" fill="#fff"/>
  <circle cx="52" cy="598" r="18" fill="#E8F8EE"/>
  <text x="82" y="591" fill="#111" font-family="Poppins, Arial, sans-serif" font-size="14" font-weight="600">Recurring Deposits</text>
  <text x="82" y="611" fill="#6B7280" font-family="Poppins, Arial, sans-serif" font-size="12">5 accounts</text>
  <text x="290" y="601" fill="#0F5D31" font-family="Poppins, Arial, sans-serif" font-size="14" font-weight="700">Ļ4.1L</text>
  <rect x="20" y="642" width="350" height="64" rx="14" fill="#fff"/>
  <circle cx="52" cy="674" r="18" fill="#E8F8EE"/>
  <text x="82" y="667" fill="#111" font-family="Poppins, Arial, sans-serif" font-size="14" font-weight="600">Lending</text>
  <text x="82" y="687" fill="#6B7280" font-family="Poppins, Arial, sans-serif" font-size="12">3 people</text>
  <text x="290" y="677" fill="#0F5D31" font-family="Poppins, Arial, sans-serif" font-size="14" font-weight="700">Ļ2.9L</text>
  <rect x="30" y="780" width="330" height="48" rx="24" fill="#fff"/>
  <circle cx="80" cy="804" r="4" fill="#0F5D31"/>
  <circle cx="160" cy="804" r="4" fill="#C9E8D4"/>
  <circle cx="230" cy="804" r="4" fill="#C9E8D4"/>
  <circle cx="310" cy="804" r="4" fill="#C9E8D4"/>
</svg>
