<svg xmlns="http://www.w3.org/2000/svg" viewBox="0 0 390 844" role="img" aria-label="CapitalNest FD details screenshot">
  <rect width="390" height="844" fill="#F8FAF9"/>
  <rect width="390" height="120" fill="#0F5D31"/>
  <text x="24" y="55" fill="#A8D5B8" font-family="Poppins, Arial, sans-serif" font-size="13"> Back</text>
  <text x="24" y="90" fill="#fff" font-family="Poppins, Arial, sans-serif" font-size="22" font-weight="700">FD Details</text>
  <rect x="20" y="150" width="350" height="140" rx="18" fill="#fff"/>
  <text x="40" y="190" fill="#6B7280" font-family="Poppins, Arial, sans-serif" font-size="13">HDFC Bank · FD #4821</text>
  <text x="40" y="230" fill="#0F5D31" font-family="Poppins, Arial, sans-serif" font-size="30" font-weight="700">¹2,50,000</text>
  <rect x="40" y="250" width="90" height="26" rx="13" fill="#E8F8EE"/>
  <text x="55" y="268" fill="#24A148" font-family="Poppins, Arial, sans-serif" font-size="12" font-weight="600">7.10% p.a.</text>
  <rect x="20" y="310" width="170" height="90" rx="16" fill="#fff"/>
  <text x="36" y="345" fill="#6B7280" font-family="Poppins, Arial, sans-serif" font-size="12">Start Date</text>
  <text x="36" y="375" fill="#111" font-family="Poppins, Arial, sans-serif" font-size="16" font-weight="600">12 Jan 2025</text>
  <rect x="200" y="310" width="170" height="90" rx="16" fill="#fff"/>
  <text x="216" y="345" fill="#6B7280" font-family="Poppins, Arial, sans-serif" font-size="12">Maturity</text>
  <text x="216" y="375" fill="#111" font-family="Poppins, Arial, sans-serif" font-size="16" font-weight="600">12 Jan 2028</text>
  <rect x="20" y="420" width="350" height="200" rx="18" fill="#fff"/>
  <text x="40" y="460" fill="#111" font-family="Poppins, Arial, sans-serif" font-size="15" font-weight="600">Maturity Value</text>
  <text x="40" y="500" fill="#24A148" font-family="Poppins, Arial, sans-serif" font-size="26" font-weight="700">¹3,08,420</text>
  <text x="40" y="545" fill="#6B7280" font-family="Poppins, Arial, sans-serif" font-size="13">Interest earned</text>
  <text x="40" y="575" fill="#0F5D31" font-family="Poppins, Arial, sans-serif" font-size="18" font-weight="600">¹58,420</text>
  <rect x="20" y="640" width="350" height="56" rx="14" fill="#0F5D31"/>
  <text x="130" y="675" fill="#fff" font-family="Poppins, Arial, sans-serif" font-size="15" font-weight="600">Set Reminder</text>
</svg>
