<svg xmlns="http://www.w3.org/2000/svg" viewBox="0 0 390 844" role="img" aria-label="CapitalNest portfolio screenshot">
  <rect width="390" height="844" fill="#F8FAF9"/>
  <rect width="390" height="100" fill="#0F5D31"/>
  <text x="24" y="60" fill="#fff" font-family="Poppins, Arial, sans-serif" font-size="22" font-weight="700">Portfolio</text>
  <rect x="20" y="130" width="350" height="280" rx="20" fill="#fff"/>
  <text x="40" y="170" fill="#6B7280" font-family="Poppins, Arial, sans-serif" font-size="13">Total Assets</text>
  <text x="40" y="210" fill="#0F5D31" font-family="Poppins, Arial, sans-serif" font-size="28" font-weight="700">ą18,45,000</text>
  <circle cx="195" cy="300" r="70" fill="none" stroke="#E8F0EB" stroke-width="28"/>
  <circle cx="195" cy="300" r="70" fill="none" stroke="#0F5D31" stroke-width="28" stroke-dasharray="200 440" transform="rotate(-90 195 300)"/>
  <circle cx="195" cy="300" r="70" fill="none" stroke="#24A148" stroke-width="28" stroke-dasharray="100 440" stroke-dashoffset="-200" transform="rotate(-90 195 300)"/>
  <circle cx="195" cy="300" r="70" fill="none" stroke="#7DDEA0" stroke-width="28" stroke-dasharray="80 440" stroke-dashoffset="-300" transform="rotate(-90 195 300)"/>
  <circle cx="195" cy="300" r="70" fill="none" stroke="#FBBF24" stroke-width="28" stroke-dasharray="40 440" stroke-dashoffset="-380" transform="rotate(-90 195 300)"/>
  <g font-family="Poppins, Arial, sans-serif" font-size="13">
    <rect x="20" y="440" width="350" height="52" rx="12" fill="#fff"/>
    <circle cx="48" cy="466" r="8" fill="#0F5D31"/>
    <text x="70" y="472" fill="#333" font-weight="600">Fixed Deposit</text>
    <text x="300" y="472" fill="#0F5D31" font-weight="700">45%</text>
    <rect x="20" y="502" width="350" height="52" rx="12" fill="#fff"/>
    <circle cx="48" cy="528" r="8" fill="#24A148"/>
    <text x="70" y="534" fill="#333" font-weight="600">Recurring Deposit</text>
    <text x="300" y="534" fill="#0F5D31" font-weight="700">25%</text>
    <rect x="20" y="564" width="350" height="52" rx="12" fill="#fff"/>
    <circle cx="48" cy="590" r="8" fill="#7DDEA0"/>
    <text x="70" y="596" fill="#333" font-weight="600">Lending</text>
    <text x="300" y="596" fill="#0F5D31" font-weight="700">18%</text>
    <rect x="20" y="626" width="350" height="52" rx="12" fill="#fff"/>
    <circle cx="48" cy="652" r="8" fill="#FBBF24"/>
    <text x="70" y="658" fill="#333" font-weight="600">Borrowing</text>
    <text x="300" y="658" fill="#0F5D31" font-weight="700">7%</text>
    <rect x="20" y="688" width="350" height="52" rx="12" fill="#fff"/>
    <circle cx="48" cy="714" r="8" fill="#93C5FD"/>
    <text x="70" y="720" fill="#333" font-weight="600">Income / Expense</text>
    <text x="300" y="720" fill="#0F5D31" font-weight="700">5%</text>
  </g>
</svg>
