<svg xmlns="http://www.w3.org/2000/svg" viewBox="0 0 390 844" role="img" aria-label="CapitalNest quick add screenshot">
  <rect width="390" height="844" fill="#F8FAF9"/>
  <rect width="390" height="100" fill="#0F5D31"/>
  <text x="24" y="60" fill="#fff" font-family="Poppins, Arial, sans-serif" font-size="22" font-weight="700">Quick Add</text>
  <text x="24" y="140" fill="#6B7280" font-family="Poppins, Arial, sans-serif" font-size="14">Choose what to add</text>
  <rect x="20" y="160" width="165" height="110" rx="18" fill="#fff"/>
  <circle cx="102" cy="200" r="22" fill="#E8F8EE"/>
  <text x="70" y="250" fill="#111" font-family="Poppins, Arial, sans-serif" font-size="14" font-weight="600" text-anchor="middle" transform="translate(32,0)">Fixed Deposit</text>
  <rect x="205" y="160" width="165" height="110" rx="18" fill="#fff"/>
  <circle cx="287" cy="200" r="22" fill="#E8F8EE"/>
  <text x="245" y="250" fill="#111" font-family="Poppins, Arial, sans-serif" font-size="14" font-weight="600">Recurring</text>
  <rect x="20" y="290" width="165" height="110" rx="18" fill="#fff"/>
  <circle cx="102" cy="330" r="22" fill="#E8F8EE"/>
  <text x="70" y="380" fill="#111" font-family="Poppins, Arial, sans-serif" font-size="14" font-weight="600">Lending</text>
  <rect x="205" y="290" width="165" height="110" rx="18" fill="#fff"/>
  <circle cx="287" cy="330" r="22" fill="#E8F8EE"/>
  <text x="245" y="380" fill="#111" font-family="Poppins, Arial, sans-serif" font-size="14" font-weight="600">Borrowing</text>
  <rect x="20" y="420" width="165" height="110" rx="18" fill="#fff"/>
  <circle cx="102" cy="460" r="22" fill="#E8F8EE"/>
  <text x="70" y="510" fill="#111" font-family="Poppins, Arial, sans-serif" font-size="14" font-weight="600">Income</text>
  <rect x="205" y="420" width="165" height="110" rx="18" fill="#fff"/>
  <circle cx="287" cy="460" r="22" fill="#E8F8EE"/>
  <text x="245" y="510" fill="#111" font-family="Poppins, Arial, sans-serif" font-size="14" font-weight="600">Expense</text>
  <rect x="20" y="560" width="350" height="70" rx="18" fill="#0F5D31"/>
  <text x="145" y="602" fill="#fff" font-family="Poppins, Arial, sans-serif" font-size="16" font-weight="600">Continue</text>
</svg>
