<svg xmlns="http://www.w3.org/2000/svg" viewBox="0 0 390 844" role="img" aria-label="CapitalNest reports screenshot">
  <rect width="390" height="844" fill="#F8FAF9"/>
  <rect width="390" height="100" fill="#0F5D31"/>
  <text x="24" y="60" fill="#fff" font-family="Poppins, Arial, sans-serif" font-size="22" font-weight="700">Reports</text>
  <rect x="20" y="130" width="350" height="220" rx="18" fill="#fff"/>
  <text x="40" y="170" fill="#111" font-family="Poppins, Arial, sans-serif" font-size="15" font-weight="600">Income vs Expense</text>
  <rect x="50" y="220" width="28" height="90" rx="6" fill="#0F5D31"/>
  <rect x="90" y="200" width="28" height="110" rx="6" fill="#24A148"/>
  <rect x="130" y="240" width="28" height="70" rx="6" fill="#0F5D31"/>
  <rect x="170" y="190" width="28" height="120" rx="6" fill="#24A148"/>
  <rect x="210" y="230" width="28" height="80" rx="6" fill="#0F5D31"/>
  <rect x="250" y="185" width="28" height="125" rx="6" fill="#24A148"/>
  <rect x="290" y="210" width="28" height="100" rx="6" fill="#0F5D31"/>
  <rect x="50" y="280" width="28" height="40" rx="4" fill="#F87171" opacity=".85"/>
  <rect x="90" y="290" width="28" height="30" rx="4" fill="#F87171" opacity=".85"/>
  <rect x="130" y="275" width="28" height="45" rx="4" fill="#F87171" opacity=".85"/>
  <rect x="170" y="285" width="28" height="35" rx="4" fill="#F87171" opacity=".85"/>
  <rect x="210" y="270" width="28" height="50" rx="4" fill="#F87171" opacity=".85"/>
  <rect x="250" y="295" width="28" height="25" rx="4" fill="#F87171" opacity=".85"/>
  <rect x="290" y="280" width="28" height="40" rx="4" fill="#F87171" opacity=".85"/>
  <rect x="20" y="370" width="350" height="180" rx="18" fill="#fff"/>
  <text x="40" y="410" fill="#111" font-family="Poppins, Arial, sans-serif" font-size="15" font-weight="600">Net Worth Trend</text>
  <path d="M50 500 C100 490, 130 460, 170 450 C220 435, 250 470, 300 420 L340 400" fill="none" stroke="#24A148" stroke-width="3" stroke-linecap="round"/>
  <circle cx="340" cy="400" r="5" fill="#24A148"/>
  <rect x="250" y="430" width="100" height="36" rx="18" fill="#E8F8EE"/>
  <text x="262" y="453" fill="#24A148" font-family="Poppins, Arial, sans-serif" font-size="11" font-weight="600">Ļ18.45L</text>
  <rect x="20" y="570" width="170" height="90" rx="16" fill="#fff"/>
  <text x="36" y="610" fill="#6B7280" font-family="Poppins, Arial, sans-serif" font-size="12">This Month</text>
  <text x="36" y="640" fill="#24A148" font-family="Poppins, Arial, sans-serif" font-size="18" font-weight="700">+Ļ42,800</text>
  <rect x="200" y="570" width="170" height="90" rx="16" fill="#fff"/>
  <text x="216" y="610" fill="#6B7280" font-family="Poppins, Arial, sans-serif" font-size="12">Expenses</text>
  <text x="216" y="640" fill="#DC2626" font-family="Poppins, Arial, sans-serif" font-size="18" font-weight="700">Ļ28,400</text>
</svg>
