<svg xmlns="http://www.w3.org/2000/svg" viewBox="0 0 64 64" role="img" aria-label="CapitalNest logo">
  <defs>
    <linearGradient id="egg" x1="0%" y1="0%" x2="100%" y2="100%">
      <stop offset="0%" stop-color="#F7E7A1"/>
      <stop offset="45%" stop-color="#E8C547"/>
      <stop offset="100%" stop-color="#C9A227"/>
    </linearGradient>
    <linearGradient id="nest" x1="0%" y1="0%" x2="0%" y2="100%">
      <stop offset="0%" stop-color="#8B5A2B"/>
      <stop offset="100%" stop-color="#5C3A1A"/>
    </linearGradient>
  </defs>
  <circle cx="32" cy="32" r="30" fill="#0F5D31"/>
  <ellipse cx="32" cy="28" rx="11" ry="14" fill="url(#egg)"/>
  <ellipse cx="28" cy="24" rx="3" ry="5" fill="#FFF6C8" opacity=".55"/>
  <path d="M14 40c4-6 10-9 18-9s14 3 18 9c-2 6-9 11-18 11s-16-5-18-11z" fill="url(#nest)"/>
  <path d="M16 41c3-2 7-3 10-2M38 39c3-1 7 0 10 2M22 46c4 1 8 2 12 1M34 47c4 0 8-1 11-3" stroke="#A67C52" stroke-width="1.6" stroke-linecap="round" fill="none"/>
  <path d="M20 38c2 1 4 2 6 1M40 39c-2 1-4 2-6 1" stroke="#6B4423" stroke-width="1.2" stroke-linecap="round" fill="none"/>
</svg>
