<svg xmlns="http://www.w3.org/2000/svg" viewBox="0 0 280 280" fill="none" aria-hidden="true">
  <defs>
    <linearGradient id="gEgg" x1="90" y1="40" x2="190" y2="180" gradientUnits="userSpaceOnUse">
      <stop stop-color="#F8E9A8"/>
      <stop offset=".5" stop-color="#E8C547"/>
      <stop offset="1" stop-color="#B8922A"/>
    </linearGradient>
    <linearGradient id="gNest" x1="40" y1="140" x2="240" y2="250" gradientUnits="userSpaceOnUse">
      <stop stop-color="#A06A3A"/>
      <stop offset="1" stop-color="#5C3A1A"/>
    </linearGradient>
    <filter id="soft" x="-20%" y="-20%" width="140%" height="140%">
      <feGaussianBlur stdDeviation="8"/>
    </filter>
  </defs>
  <ellipse cx="140" cy="210" rx="90" ry="18" fill="#0A3F22" opacity=".25" filter="url(#soft)"/>
  <path d="M40 80c30-40 80-50 110-20 20 20 10 50-20 40-25-8-40 10-55 25-20 20-50 10-35-45z" fill="#24A148" opacity=".35"/>
  <path d="M210 50c40 10 55 55 30 80-18 18-45 10-50-15-4-20 5-40 20-65z" fill="#24A148" opacity=".28"/>
  <ellipse cx="140" cy="120" rx="48" ry="62" fill="url(#gEgg)"/>
  <ellipse cx="122" cy="100" rx="12" ry="22" fill="#FFF8D6" opacity=".45"/>
  <path d="M55 175c25-35 60-50 85-50s60 15 85 50c-15 40-55 65-85 65s-70-25-85-65z" fill="url(#gNest)"/>
  <path d="M70 180c20-12 40-18 55-12M155 170c18-8 40-6 55 8M85 205c25 8 50 12 75 8M165 210c22 2 42-4 55-14" stroke="#C4894F" stroke-width="4" stroke-linecap="round"/>
  <path d="M95 165c15 8 30 10 45 4M150 168c12 6 28 8 40 2" stroke="#6B4423" stroke-width="3" stroke-linecap="round" opacity=".7"/>
</svg>
